HIERARCHY
ROOT root
{
	OFFSET 0.000000 0.000000 0.000000
	CHANNELS 6 Xposition Yposition Zposition Zrotation Yrotation Xrotation
	JOINT lhip
	{
		OFFSET 0.058581 -0.082280 -0.017664
		CHANNELS 3 Zrotation Yrotation Xrotation
		JOINT lknee
		{
			OFFSET 0.043451 -0.386469 0.008037
			CHANNELS 3 Zrotation Yrotation Xrotation
			JOINT lankle
			{
				OFFSET -0.014790 -0.426874 -0.037428
				CHANNELS 3 Zrotation Yrotation Xrotation
				JOINT ltoe
				{
					OFFSET 0.041054 -0.060286 0.122042
					CHANNELS 3 Zrotation Yrotation Xrotation
					End Site
					{
						OFFSET 0.000000 0.000000 0.000000
					}
				}
			}
		}
	}
	JOINT rhip
	{
		OFFSET -0.060310 -0.090513 -0.013543
		CHANNELS 3 Zrotation Yrotation Xrotation
		JOINT rknee
		{
			OFFSET -0.043257 -0.383688 -0.004843
			CHANNELS 3 Zrotation Yrotation Xrotation
			JOINT rankle
			{
				OFFSET 0.019056 -0.420046 -0.034562
				CHANNELS 3 Zrotation Yrotation Xrotation
				JOINT rtoe
				{
					OFFSET -0.034840 -0.062106 0.130323
					CHANNELS 3 Zrotation Yrotation Xrotation
					End Site
					{
						OFFSET 0.000000 0.000000 0.000000
					}
				}
			}
		}
	}
	JOINT lowerback
	{
		OFFSET 0.004439 0.124404 -0.038385
		CHANNELS 3 Zrotation Yrotation Xrotation
		JOINT upperback
		{
			OFFSET 0.004488 0.137956 0.026820
			CHANNELS 3 Zrotation Yrotation Xrotation
			JOINT chest
			{
				OFFSET -0.002265 0.056032 0.002855
				CHANNELS 3 Zrotation Yrotation Xrotation
				JOINT lowerneck
				{
					OFFSET -0.013390 0.211636 -0.033468
					CHANNELS 3 Zrotation Yrotation Xrotation
					JOINT upperneck
					{
						OFFSET 0.010113 0.088937 0.050410
						CHANNELS 3 Zrotation Yrotation Xrotation
						End Site
						{
							OFFSET 0.000000 0.000000 0.000000
						}
					}
				}
				JOINT lclavicle
				{
					OFFSET 0.071702 0.114000 -0.018898
					CHANNELS 3 Zrotation Yrotation Xrotation
					JOINT lshoulder
					{
						OFFSET 0.122921 0.045205 -0.019046
						CHANNELS 3 Zrotation Yrotation Xrotation
						JOINT lelbow
						{
							OFFSET 0.255332 -0.015649 -0.022946
							CHANNELS 3 Zrotation Yrotation Xrotation
							JOINT lwrist
							{
								OFFSET 0.265709 0.012698 -0.007375
								CHANNELS 3 Zrotation Yrotation Xrotation
								End Site
								{
									OFFSET 0.000000 0.000000 0.000000
								}
							}
						}
					}
				}
				JOINT rclavicle
				{
					OFFSET -0.082954 0.112472 -0.023707
					CHANNELS 3 Zrotation Yrotation Xrotation
					JOINT rshoulder
					{
						OFFSET -0.113228 0.046853 -0.008472
						CHANNELS 3 Zrotation Yrotation Xrotation
						JOINT relbow
						{
							OFFSET -0.260127 -0.014369 -0.031269
							CHANNELS 3 Zrotation Yrotation Xrotation
							JOINT rwrist
							{
								OFFSET -0.269108 0.006794 -0.006027
								CHANNELS 3 Zrotation Yrotation Xrotation
								End Site
								{
									OFFSET 0.000000 0.000000 0.000000
								}
							}
						}
					}
				}
			}
		}
	}
}
MOTION
Frames: 7
Frame Time: 0.033333
0.409355 0.185160 0.999897 91.854553 0.319695 87.485749 8.315711 5.647386 9.152472 -5.663063 -3.510120 -4.030292 0.462777 7.570379 -3.832439 0.000000 -0.000000 0.000000 -7.410937 -8.180168 7.507318 1.178260 -1.327771 2.603480 5.550937 -6.336264 -6.954123 0.000000 -0.000000 0.000000 -3.358341 6.396169 -4.464970 0.622352 0.835198 3.098140 -0.168187 2.837960 -0.448459 7.126639 12.299973 11.284779 3.766280 11.848034 2.061818 -26.338547 3.547386 5.543518 -58.521816 -5.270374 10.761213 -1.271799 -20.686494 18.014843 21.985622 -2.243908 -9.481542 27.131104 -4.032182 14.663582 69.387725 4.228498 11.128113 -16.275764 17.963509 -10.877845 -31.323299 2.151780 -17.832611 
0.409347 0.185164 0.999905 91.850029 0.326965 87.486401 8.321464 5.646401 9.153500 -5.662949 -3.508200 -4.032287 0.463198 7.572355 -3.831148 0.000000 -0.000000 0.000000 -7.405333 -8.180528 7.503382 1.181354 -1.327099 2.606011 5.550034 -6.336512 -6.949592 0.000000 -0.000000 0.000000 -3.360301 6.395978 -4.463952 0.622004 0.837137 3.098401 -0.168557 2.838694 -0.447890 7.135528 12.314841 11.292544 3.772447 11.863568 2.067230 -26.340254 3.548538 5.542406 -58.517738 -5.272288 10.762766 -1.277329 -20.694941 18.001111 21.989762 -2.231279 -9.513344 27.132000 -4.036387 14.664640 69.387606 4.231359 11.133863 -16.276796 17.965807 -10.875580 -31.326095 2.154250 -17.829949 
0.408169 0.189268 1.002504 90.943077 2.287470 87.495111 9.920917 5.604488 9.382055 -5.500282 -3.008769 -4.288851 0.327935 7.650051 -3.559375 0.000000 -0.000000 0.000000 -5.830752 -8.216003 6.758849 1.780670 -1.268991 3.302030 5.421054 -6.038287 -5.588536 0.000000 -0.000000 0.000000 -3.501980 6.188720 -4.213516 0.605737 1.121435 3.221593 -0.177276 3.079826 -0.184552 9.729000 15.983347 13.162165 5.238838 15.715869 3.687079 -26.544942 3.854505 5.168674 -58.259290 -5.770124 10.839942 -1.197573 -21.345038 16.354055 21.132882 -1.745965 -12.211740 27.066106 -4.856108 14.899139 69.210682 5.002281 11.978874 -16.195749 18.558905 -10.007105 -31.563145 2.610766 -17.431979 
0.408188 0.189367 1.002553 90.941594 2.299438 87.493637 9.927243 5.604814 9.382603 -5.497792 -3.008981 -4.286206 0.328718 7.651233 -3.560017 0.000000 -0.000000 0.000000 -5.826030 -8.215765 6.757748 1.783366 -1.262368 3.308155 5.422744 -6.036080 -5.576207 0.000000 -0.000000 0.000000 -3.505085 6.186759 -4.212788 0.608082 1.120187 3.229160 -0.175614 3.079869 -0.183055 9.751389 16.014530 13.179518 5.249945 15.755633 3.692683 -26.551269 3.851256 5.165393 -58.255310 -5.767495 10.844600 -1.201884 -21.356614 16.352067 21.151376 -1.724508 -12.220686 27.066605 -4.858157 14.899560 69.207378 5.010975 11.983336 -16.197386 18.555887 -10.010307 -31.559235 2.613970 -17.433822 
0.408191 0.189397 1.002571 90.942064 2.304735 87.492539 9.930259 5.604777 9.382541 -5.496256 -3.009590 -4.284169 0.328688 7.651696 -3.560017 0.000000 -0.000000 0.000000 -5.824353 -8.214627 6.757238 1.785083 -1.258138 3.312558 5.424764 -6.034535 -5.568034 0.000000 -0.000000 0.000000 -3.506857 6.186021 -4.211865 0.609913 1.119185 3.233172 -0.173885 3.079027 -0.182849 9.768326 16.037926 13.192803 5.257081 15.784346 3.695277 -26.554093 3.849107 5.163486 -58.253049 -5.765708 10.847987 -1.205880 -21.362468 16.353181 21.160273 -1.714749 -12.225081 27.066622 -4.860903 14.898710 69.205372 5.016354 11.986416 -16.198356 18.554106 -10.012691 -31.555855 2.614532 -17.436921 
0.408191 0.189406 1.002575 90.942800 2.305860 87.491714 9.930901 5.604812 9.382876 -5.495992 -3.010195 -4.283370 0.328660 7.651552 -3.560101 0.000000 -0.000000 0.000000 -5.824521 -8.213975 6.757398 1.785505 -1.256592 3.314731 5.425546 -6.033901 -5.565754 0.000000 -0.000000 0.000000 -3.507466 6.185280 -4.211920 0.610872 1.118620 3.235356 -0.172933 3.079113 -0.182086 9.774296 16.046951 13.197822 5.258878 15.795866 3.695550 -26.555232 3.847801 5.162374 -58.252549 -5.765104 10.849402 -1.206787 -21.364136 16.353725 21.163125 -1.712397 -12.224433 27.066138 -4.861177 14.898273 69.204721 5.018503 11.987377 -16.199052 18.553705 -10.014639 -31.554112 2.614438 -17.438156 
0.408191 0.189409 1.002576 90.943425 2.305993 87.491298 9.930886 5.604858 9.382949 -5.495986 -3.010658 -4.282831 0.328654 7.651347 -3.560194 0.000000 -0.000000 0.000000 -5.824973 -8.213655 6.757402 1.785564 -1.255906 3.316088 5.425876 -6.033565 -5.564978 0.000000 -0.000000 0.000000 -3.507619 6.185015 -4.211932 0.611306 1.118363 3.236405 -0.172529 3.079125 -0.181737 9.777272 16.051623 13.200476 5.259483 15.801678 3.695327 -26.555707 3.847179 5.161763 -58.252261 -5.764746 10.850092 -1.207233 -21.364871 16.354432 21.164118 -1.711599 -12.223459 27.065938 -4.861443 14.897952 69.204449 5.019442 11.987755 -16.199570 18.553621 -10.015891 -31.553117 2.614411 -17.438776 
